<svg width="128.000000" height="32.000000" viewBox="0 0 128 32" fill="none" xmlns="http://www.w3.org/2000/svg" xmlns:xlink="http://www.w3.org/1999/xlink">
	<desc>
			Created with Pixso.
	</desc>
	<defs>
		<clipPath id="clip1_198">
			<rect id="Frame" rx="0.000000" width="127.000000" height="31.000000" transform="translate(0.500000 0.500000)" fill="white" fill-opacity="0"/>
		</clipPath>
	</defs>
	<g clip-path="url(#clip1_198)">
		<path id="Fill 1" d="M4.18 15.16C4.18 15.64 4.21 16.08 4.28 16.53C6.63 16.3 10.6 15.22 10.6 12.1C10.6 10.7 9.87 9.33 8.02 9.33C5.61 9.33 4.18 11.72 4.18 15.16ZM14.98 21.05C14.19 22.32 11.71 24.87 7.9 24.87C3.67 24.87 0.08 21.75 0.08 16.81C0.08 11.62 4.05 7.9 8.6 7.9C11.68 7.9 14.15 9.49 14.15 12.2C14.15 16.43 7.93 17.39 4.5 17.71C5.29 20.6 7.45 21.78 9.74 21.78C11.64 21.78 12.98 20.83 13.9 20.13C14.5 19.65 15.27 20.6 14.98 21.05Z" fill="#1E1928" fill-opacity="1.000000" fill-rule="evenodd"/>
		<path id="Fill 3" d="M42.77 22.83C43.21 22.9 43.5 23.22 43.5 23.66L43.5 23.79C43.5 24.24 43.21 24.52 42.77 24.52L36.26 24.52C35.81 24.52 35.53 24.24 35.53 23.79L35.53 23.66C35.53 23.22 35.81 22.9 36.26 22.83L36.86 22.77C37.31 22.71 37.59 22.39 37.59 21.94L37.59 13.57C37.59 11.62 36.45 10.76 35.02 10.76C34 10.76 32.92 11.11 32.03 12C31.75 12.29 31.59 12.51 31.59 13.15L31.59 21.94C31.59 22.39 31.88 22.71 32.32 22.77L32.92 22.83C33.37 22.9 33.65 23.22 33.65 23.66L33.65 23.79C33.65 24.24 33.37 24.52 32.92 24.52L26.41 24.52C25.97 24.52 25.68 24.24 25.68 23.79L25.68 23.66C25.68 23.22 25.97 22.9 26.41 22.83L27.02 22.77C27.46 22.71 27.75 22.39 27.75 21.94L27.75 13.57C27.75 11.62 26.6 10.76 25.17 10.76C24.16 10.76 22.98 11.24 22.12 12.04C21.81 12.35 21.65 12.61 21.65 13.09L21.65 21.94C21.65 22.39 21.93 22.71 22.38 22.77L22.98 22.83C23.43 22.9 23.71 23.22 23.71 23.66L23.71 23.79C23.71 24.24 23.43 24.52 22.98 24.52L16.47 24.52C16.03 24.52 15.74 24.24 15.74 23.79L15.74 23.66C15.74 23.22 16.03 22.9 16.47 22.83L17.08 22.77C17.52 22.71 17.81 22.39 17.81 21.94L17.81 11.49C17.81 11.05 17.52 10.73 17.08 10.67L16.34 10.57C15.9 10.51 15.61 10.19 15.61 9.74L15.61 9.62C15.61 9.17 15.9 8.88 16.34 8.88C17.58 8.82 18.92 8.47 20.12 7.96C20.54 7.77 20.85 7.93 20.92 8.37L21.36 10.83L21.78 10.83C22.95 9.2 24.67 7.9 27.05 7.9C29.08 7.9 30.51 9.01 31.18 10.83L31.62 10.83C32.8 9.2 34.51 7.9 36.89 7.9C39.75 7.9 41.43 10.16 41.43 13.37L41.43 21.94C41.43 22.39 41.72 22.71 42.17 22.77L42.77 22.83Z" fill="#1E1928" fill-opacity="1.000000" fill-rule="evenodd"/>
		<path id="Fill 5" d="M56.87 16.69C56.87 12.39 55.19 10.57 52.77 10.57C51.72 10.57 50.96 10.92 50.29 11.4C49.75 11.78 49.34 12.23 49.34 13.09L49.34 20.92C49.34 22.23 50.55 23.38 52.3 23.38C54.87 23.38 56.87 21.21 56.87 16.69ZM60.97 15.89C60.97 22.48 56.62 24.9 52.8 24.9C51.66 24.9 50.29 24.68 49.34 24.27L49.34 29.05C49.34 29.49 49.63 29.81 50.07 29.91L51.66 30.13C52.11 30.22 52.39 30.54 52.39 30.99L52.39 31.12C52.39 31.56 52.11 31.85 51.66 31.85L44.13 31.85C43.69 31.85 43.4 31.56 43.4 31.12L43.4 30.99C43.4 30.54 43.69 30.19 44.1 30.1L44.8 29.94C45.21 29.84 45.5 29.49 45.5 29.05L45.5 11.49C45.5 11.05 45.21 10.73 44.77 10.67L44.04 10.57C43.59 10.51 43.31 10.19 43.31 9.74L43.31 9.62C43.31 9.17 43.59 8.88 44.04 8.88C45.28 8.82 46.61 8.47 47.82 7.96C48.23 7.77 48.55 7.93 48.61 8.37L48.99 10.48L49.41 10.48C50.87 8.6 52.58 7.9 54.46 7.9C58.39 7.9 60.97 11.18 60.97 15.89Z" fill="#1E1928" fill-opacity="1.000000" fill-rule="evenodd"/>
		<path id="Fill 7" d="M71.08 18.41C71.08 17.96 70.82 17.67 70.38 17.67L69.22 17.67C67.23 17.67 65.81 18.5 65.81 20.28C65.81 21.81 66.85 22.58 68.11 22.58C69.22 22.58 70.07 22 70.48 21.62C70.82 21.3 70.92 21.08 70.95 20.44L71.08 18.41ZM77.95 22.77C77.89 22.89 77.76 23.05 77.67 23.18C76.85 24.17 75.68 24.84 74.26 24.84C72.72 24.84 71.71 24.04 71.42 22.45L71.01 22.45C69.78 24.1 68.05 25 66.28 25C63.86 25 62 23.4 62 21.08C62 18.98 63.54 17.55 66.54 16.88L70.51 16.02C70.92 15.92 71.2 15.57 71.23 15.13L71.3 14.08C71.42 11.53 70.41 9.81 67.7 9.81C66.44 9.81 65.24 10.19 64.3 10.92C65.5 10.92 66.44 11.78 66.44 12.99C66.44 14.2 65.5 15.13 64.3 15.13C63.1 15.13 62.15 14.17 62.15 12.61C62.15 9.59 65.75 8 69.09 8C72.94 8 75.33 10.06 75.11 13.79L74.7 21.11C74.64 22.03 75.08 22.35 75.65 22.35C75.9 22.35 76.44 22.29 77.22 21.97C77.7 21.78 78.14 22.29 77.95 22.77Z" fill="#1E1928" fill-opacity="1.000000" fill-rule="evenodd"/>
		<path id="Fill 9" d="M83.77 24.78C81.39 24.78 79.89 23.57 79.89 20.03L79.89 10.7C79.89 10.48 79.77 10.28 79.54 10.22L78.02 9.62C77.83 9.52 77.7 9.36 77.7 9.17L77.7 9.11C77.7 8.95 77.8 8.79 77.99 8.69C79.74 7.58 81.39 6.14 83.04 4.36C83.32 4.07 83.96 4.3 83.9 4.77L83.42 8.28L88.25 8.28C88.69 8.28 88.95 8.56 88.88 9.01L88.76 9.62C88.69 10.06 88.37 10.32 87.93 10.28L83.74 10L83.74 19.55C83.74 21.82 84.59 22.2 85.83 22.2C86.88 22.2 87.64 21.91 87.96 21.75C88.31 21.59 88.6 21.75 88.72 21.97C88.88 22.23 88.91 22.58 88.6 22.87C87.48 23.79 85.93 24.78 83.77 24.78Z" fill="#1E1928" fill-opacity="1.000000" fill-rule="evenodd"/>
		<path id="Fill 11" d="M107.21 22.83C107.65 22.9 107.94 23.22 107.94 23.66L107.94 23.79C107.94 24.24 107.65 24.52 107.21 24.52L100.7 24.52C100.25 24.52 99.97 24.24 99.97 23.79L99.97 23.66C99.97 23.22 100.25 22.9 100.7 22.83L101.3 22.77C101.74 22.71 102.03 22.39 102.03 21.94L102.03 13.5C102.03 11.4 100.76 10.76 99.33 10.76C98.09 10.76 96.98 11.24 96 12.13C95.87 12.26 95.61 12.51 95.61 12.99L95.61 21.94C95.61 22.39 95.9 22.71 96.35 22.77L96.95 22.83C97.39 22.9 97.68 23.22 97.68 23.66L97.68 23.79C97.68 24.24 97.39 24.52 96.95 24.52L90.44 24.52C89.99 24.52 89.71 24.24 89.71 23.79L89.71 23.66C89.71 23.22 89.99 22.9 90.44 22.83L91.04 22.77C91.49 22.71 91.77 22.39 91.77 21.94L91.77 3.75C91.77 3.44 91.58 3.21 91.26 3.18L90.44 3.02C89.99 2.96 89.71 2.64 89.71 2.23C89.71 1.78 89.99 1.49 90.44 1.46C91.9 1.33 93.36 0.89 94.88 0.19C95.33 -0.04 95.61 0.12 95.61 0.57L95.61 10.63L96.03 10.63C97.2 9.01 98.89 7.9 101.11 7.9C104.25 7.9 105.87 10.16 105.87 13.37L105.87 21.94C105.87 22.39 106.16 22.71 106.6 22.77L107.21 22.83Z" fill="#1E1928" fill-opacity="1.000000" fill-rule="evenodd"/>
		<path id="Fill 13" d="M123.88 8.28C124.33 8.28 124.61 8.56 124.61 9.01L124.61 9.04C124.61 9.49 124.33 9.84 123.91 9.93L123.66 10C123.25 10.09 122.9 10.44 122.8 10.86C121.37 16.91 118.99 23.85 115.78 28.06C113.97 30.42 111.97 31.91 109.59 31.91C107.33 31.91 106.57 30.54 106.57 29.3C106.57 27.99 107.49 27.07 108.76 27.07C110.03 27.07 110.95 27.99 110.95 29.27C110.95 29.56 110.92 29.81 110.83 30.06C112.67 29.33 114.26 27.61 115.66 25.35C112.86 20.64 110.64 15.89 109.02 10.51C108.95 10.25 108.73 10.06 108.45 10.03L107.94 9.93C107.49 9.87 107.21 9.55 107.21 9.11L107.21 9.01C107.21 8.56 107.49 8.28 107.94 8.28L114.19 8.28C114.64 8.28 114.92 8.56 114.92 9.01L114.92 9.11C114.92 9.55 114.64 9.87 114.19 9.93L113.88 10C113.43 10.06 113.21 10.38 113.3 10.79C114.35 14.84 116.13 18.6 117.62 21.66C119.02 18.28 120.16 14.33 120.93 10.83C121.02 10.41 120.8 10.09 120.36 10.03L119.5 9.9C119.05 9.84 118.77 9.52 118.77 9.07L118.77 9.01C118.77 8.56 119.05 8.28 119.5 8.28L123.88 8.28Z" fill="#1E1928" fill-opacity="1.000000" fill-rule="evenodd"/>
		<path id="Fill 15" d="M125.44 24.94C124.07 24.94 122.96 23.85 122.96 22.48C122.96 21.15 124.07 20.03 125.44 20.03C126.77 20.03 127.88 21.15 127.88 22.48C127.88 23.85 126.77 24.94 125.44 24.94Z" fill="#1E1928" fill-opacity="1.000000" fill-rule="evenodd"/>
	</g>
</svg>
